<?xml version="1.0" standalone="no"?>
<!DOCTYPE svg PUBLIC "-//W3C//DTD SVG 1.1//EN" "http://www.w3.org/Graphics/SVG/1.1/DTD/svg11.dtd" >
<svg>
<metadata>
Created by FontForge 20090622 at Fri Mar  4 07:59:00 2016
 By deploy user
Copyright &#194;&#169; 2009 by Maxim Iorsh (iorsh@users.sourceforge.net). Distributed under the terms of GNU General Public License version 2(http://www.gnu.org/licenses/gpl.html).
All rights reserved.
</metadata>
<defs>
<font id="HillelCLM-Medium" horiz-adv-x="523" >
  <font-face 
    font-family="Hillel CLM"
    font-weight="500"
    font-stretch="normal"
    units-per-em="1000"
    panose-1="2 0 6 3 0 0 0 0 0 0"
    ascent="700"
    descent="-300"
    cap-height="610"
    bbox="16.1429 -250 1115.82 750"
    underline-thickness="50"
    underline-position="-100"
    unicode-range="U+0020-U+2502"
  />
<missing-glyph horiz-adv-x="500" 
d="M50 0v466h400v-466h-400zM100 50h300v366h-300v-366z" />
    <glyph glyph-name=".notdef" horiz-adv-x="500" 
d="M50 0v466h400v-466h-400zM100 50h300v366h-300v-366z" />
    <glyph glyph-name="uni0000" horiz-adv-x="759" 
d="M182 -109q-32 0 -50 15q-19 15 -19 51v586q0 37 19 52q18 15 50 15h396q32 0 51 -15q18 -15 18 -52v-586q0 -36 -18 -51q-19 -15 -51 -15h-396zM212 550q-37 0 -37 -34v-532q0 -34 37 -34h336q37 0 37 34v532q0 34 -37 34h-336z" />
    <glyph glyph-name="uni0000" horiz-adv-x="759" 
d="M182 -109q-32 0 -50 15q-19 15 -19 51v586q0 37 19 52q18 15 50 15h396q32 0 51 -15q18 -15 18 -52v-586q0 -36 -18 -51q-19 -15 -51 -15h-396zM212 550q-37 0 -37 -34v-532q0 -34 37 -34h336q37 0 37 34v532q0 34 -37 34h-336z" />
    <glyph glyph-name="nonmarkingreturn" horiz-adv-x="333" 
 />
    <glyph glyph-name="space" unicode=" " horiz-adv-x="390" 
 />
    <glyph glyph-name="exclam" unicode="!" horiz-adv-x="304" 
d="M130 110h33q14 0 23 -8t7 -22l-7 -54q-2 -11 -10.5 -18.5t-20.5 -7.5h-33q-15 0 -24 8.5t-7 21.5l8 52q2 12 10.5 20t20.5 8zM109 230l-11 273q-1 23 19 31l37 16q10 4 19.5 1t12.5 -10q5 -10 4 -31l-16 -278q-2 -20 -17 -27l-18 -8q-8 -3 -16 -0.5t-11 8.5q-2 5 -3 25z
" />
    <glyph glyph-name="quotedbl" unicode="&#x22;" horiz-adv-x="378" 
d="M229 409l-4 94q-1 27 21 38l47 23q17 9 33 -4q13 -10 9 -31l-24 -117q-4 -18 -20 -26l-31 -15q-9 -4 -17 -1t-11 10q-2 5 -3 29zM58 409l-4 94q-1 27 21 38l46 23q18 9 34 -4q13 -10 8 -31l-23 -117q-4 -18 -20 -26l-31 -15q-9 -4 -17 -1t-11 10q-2 5 -3 29z" />
    <glyph glyph-name="percent" unicode="%" 
d="M105 49l247 423q19 32 44 35l45 5q12 1 17.5 -8.5t2.5 -20.5q-3 -12 -23 -43l-261 -418q-16 -25 -35 -28l-39 -3q-10 0 -14.5 7t-2.5 16q2 6 19 35zM364 -3q-21 7 -34 27q-14 22 -17 55q-3 30 2 65q4 32 18 61q9 18 24 27q16 10 41 10q26 0 43 -5q21 -7 34 -27
q15 -22 17 -54q3 -31 -2 -66q-4 -32 -18 -61q-9 -18 -23 -27q-17 -10 -42 -10q-26 0 -43 5zM402 67h15q15 0 22 11q7 12 6 39q0 20 -7 33q-4 8 -12.5 12.5t-22.5 4.5h-15q-14 0 -21 -11q-8 -12 -7 -39q0 -20 7 -33q4 -8 12.5 -12.5t22.5 -4.5zM88 261q-21 7 -34 27
q-14 22 -17 55q-3 30 2 65q4 32 18 61q9 18 24 27q16 10 41 10q26 0 43 -5q21 -7 34 -27q14 -22 17 -54q3 -31 -2 -66q-4 -32 -18 -61q-9 -18 -24 -27q-16 -10 -41 -10q-26 0 -43 5zM126 331h15q14 0 21 11q8 12 7 39q0 20 -7 33q-4 8 -12.5 12.5t-22.5 4.5h-15
q-15 0 -22 -11q-7 -12 -6 -39q0 -20 7 -33q4 -8 12.5 -12.5t22.5 -4.5z" />
    <glyph glyph-name="quotesingle" unicode="'" horiz-adv-x="207" 
d="M58 409l-4 94q-1 27 21 38l46 23q18 9 34 -4q13 -10 8 -31l-23 -117q-4 -18 -20 -26l-31 -15q-9 -4 -17 -1t-11 10q-2 5 -3 29z" />
    <glyph glyph-name="parenleft" unicode="(" horiz-adv-x="300" 
d="M70 249q0 86 31 183q25 73 72 143q6 9 10.5 14.5t12 9.5t16.5 4h21q14 0 18.5 -10t-2.5 -21q-42 -70 -64 -143q-27 -87 -27 -180q0 -91 27 -179q22 -72 64 -143q7 -11 2.5 -20.5t-18.5 -10.5h-21q-13 0 -21 7t-18 21q-47 70 -72 144q-31 96 -31 181z" />
    <glyph glyph-name="parenright" unicode=")" horiz-adv-x="300" 
d="M232 249q-1 -85 -32 -182q-24 -73 -72 -143q-6 -9 -10.5 -14t-12 -9.5t-16.5 -4.5h-21q-14 1 -18.5 10.5t2.5 20.5q42 71 64 143q27 88 27 179q0 93 -27 180q-22 73 -64 143q-7 11 -2.5 21t18.5 10h21q13 0 21.5 -7t17.5 -21q48 -70 72 -143q31 -97 32 -183z" />
    <glyph glyph-name="asterisk" unicode="*" horiz-adv-x="446" 
d="M196 307l-11 76q-3 14 3.5 22.5t20.5 8.5l34 1q14 0 20 -9t4 -23l-12 -77q-1 -7 2.5 -9.5t8.5 -1.5l93 15q15 2 23 -5.5t6 -20.5l-5 -25q-5 -25 -38 -27l-61 -5q-6 0 -8 -3.5t2 -8.5l45 -52q18 -21 10 -48l-4 -15q-5 -18 -24 -19t-30 19l-39 68q-5 7 -11 7t-10 -8
l-39 -67q-12 -20 -30.5 -19t-23.5 19l-4 15q-8 27 10 48l45 51q4 5 2 9t-9 4l-64 5q-13 1 -23 7t-13 16l-6 28q-3 12 4.5 20.5t20.5 6.5l99 -15q6 -1 9.5 2t2.5 10z" />
    <glyph glyph-name="plus" unicode="+" horiz-adv-x="542" 
d="M322 300h106q16 0 24 -6.5t5 -19.5l-5 -25q-5 -27 -37 -27h-93q-15 0 -15 -14v-74q0 -24 -3 -31q-8 -14 -33 -9l-16 4q-19 8 -19 31v80q0 13 -14 13h-94q-11 0 -21.5 6.5t-13.5 16.5l-7 28q-2 11 5 19t20 8h111q14 0 14 13v82q0 23 19 31l16 4q25 5 33 -10q3 -7 3 -30
v-76q0 -14 15 -14z" />
    <glyph glyph-name="comma" unicode="," horiz-adv-x="272" 
d="M120 -110q-7 -19 -21 -23l-15 -5q-14 -3 -21 4q-5 6 -3 19l17 109q2 12 -1 15q-8 9 -6 21l8 52q1 12 9.5 20t20.5 8h38q15 0 24 -8t7 -22l-5 -40q-3 -20 -10 -38z" />
    <glyph glyph-name="hyphen" unicode="-" horiz-adv-x="435" 
d="M335 222h-233q-12 0 -22.5 6.5t-13.5 16.5l-6 28q-3 11 4 19t21 8h263q16 0 24 -6.5t5 -19.5l-5 -25q-5 -27 -37 -27z" />
    <glyph glyph-name="period" unicode="." horiz-adv-x="262" 
d="M97 110h39q15 0 23.5 -8t6.5 -22l-7 -54q-1 -11 -10 -18.5t-20 -7.5h-39q-15 0 -24 8.5t-7 21.5l8 52q2 12 10.5 20t19.5 8z" />
    <glyph glyph-name="slash" unicode="/" 
d="M87 19l283 483q19 32 44 35l45 5q11 1 17 -8t3 -21q-3 -11 -23 -43l-298 -478q-15 -25 -35 -28l-39 -3q-9 0 -13.5 7t-2.5 16q2 6 19 35z" />
    <glyph glyph-name="zero" unicode="0" horiz-adv-x="487" 
d="M161 6q-46 13 -74 54q-31 46 -37 111q-5 64 4 135q9 65 39 123q20 38 52 56q36 20 89 20q57 0 93 -11q46 -13 74 -54q31 -46 37 -111q6 -64 -4 -135q-9 -65 -39 -123q-19 -38 -52 -56q-36 -20 -89 -20q-57 0 -93 11zM242 85h47q44 0 65 38q22 39 21 128q-1 64 -23 107
q-12 25 -37.5 41t-68.5 16h-47q-43 0 -65 -38q-22 -39 -20 -128q1 -64 22 -107q13 -25 38 -41t68 -16z" />
    <glyph glyph-name="one" unicode="1" horiz-adv-x="353" 
d="M212 124q-1 -17 9 -25.5t28 -8.5h1q32 0 37 -27l8 -37q2 -13 -5.5 -19.5t-23.5 -6.5h-181q-14 0 -21 8t-4 19l9 40q6 23 30 23h20q17 0 27 8.5t10 25.5l-7 266q-1 20 -22 16l-33 -5q-13 -2 -22 4.5t-8 17.5l2 41q1 24 25 28l93 13q23 4 33 -6t9 -32z" />
    <glyph glyph-name="two" unicode="2" horiz-adv-x="495" 
d="M251 410h-125q-24 0 -29 23l-10 40q-3 11 4.5 19t20.5 8h173q44 0 68 -10q27 -11 41 -38q28 -55 5 -144q-7 -27 -13 -43t-21 -35t-37 -32l-132 -76q-17 -10 -15.5 -21t22.5 -11h199q32 0 37 -27l8 -37q2 -13 -5.5 -19.5t-23.5 -6.5h-344q-13 0 -20.5 8t-4.5 19l11 45
q4 14 22 28l146 106q66 49 87 74q15 20 20 56q6 41 -18 62q-14 12 -66 12z" />
    <glyph glyph-name="three" unicode="3" horiz-adv-x="468" 
d="M306 300q50 -27 67 -42q37 -35 37 -101q0 -62 -39 -109q-33 -40 -122 -58l-169 -34q-12 -2 -21 4.5t-8 18.5l2 41q1 23 25 27l198 37q38 7 56 20q23 16 17 53q-5 31 -96 62l-54 18q-10 3 -12 11t3 14l79 114q10 14 5.5 24t-20.5 10h-166q-24 0 -30 23l-9 40q-3 11 4.5 19
t20.5 8h279q32 0 29 -26l-7 -37q0 -1 -1 -4q-6 -30 -19 -43l-56 -66q-4 -6 -2 -13.5t9 -10.5z" />
    <glyph glyph-name="four" unicode="4" horiz-adv-x="488" 
d="M315 385q1 17 16 25l12 6q8 4 15.5 1.5t10.5 -8.5q3 -5 3 -25l3 -122q0 -23 24 -23h8q31 0 37 -27l6 -32q3 -13 -5 -19.5t-24 -6.5h-19q-12 0 -18.5 -5t-6.5 -18l2 -91q0 -23 -19 -31l-28 -12q-10 -4 -19.5 -1t-13.5 10q-4 9 -3 30l5 95q1 13 -6 18t-19 5h-212
q-13 0 -20 8t-5 19l10 40q3 11 7 20t15 26.5t12 18.5l150 249q16 24 38 24h52q21 1 23 -14q2 -10 -12 -29l-205 -261q-5 -7 -2 -11.5t12 -4.5h143q25 0 26 23z" />
    <glyph glyph-name="five" unicode="5" horiz-adv-x="462" 
d="M404 156q-1 -67 -34 -108q-34 -40 -120 -58l-161 -34q-13 -2 -22 4.5t-8 18.5l2 41q1 23 25 27l186 36q42 7 55 20q20 17 18 53q-2 20 -24.5 36.5t-52.5 26.5l-176 58q-35 12 -26 53l32 147q5 23 36 23h237q13 0 20.5 -8t4.5 -19l-10 -40q-5 -23 -30 -23h-194
q-14 0 -19.5 -6.5t-10.5 -21.5q-6 -21 24 -31l130 -41q66 -21 93 -65q25 -41 25 -89z" />
    <glyph glyph-name="six" unicode="6" horiz-adv-x="466" 
d="M189 334q35 15 72 19q31 4 51 0q44 -10 70 -39q30 -32 35 -79q2 -16 2 -33q0 -30 -5 -63q-9 -47 -37 -89q-19 -27 -49 -40q-34 -15 -85 -15q-54 0 -87 8q-44 10 -70 39q-30 33 -35 81q-3 22 -3 43q0 31 4 53q12 71 62 145l116 171q16 24 38 25h53q21 0 23 -14.5
t-13 -28.5l-152 -167q-6 -7 -2 -13t12 -3zM232 85h41q42 0 62 22q23 24 23 65q0 44 -22 70q-12 14 -36 23q-36 14 -86 14q-61 0 -88 -37q-17 -24 -17 -59q0 -39 22 -65q12 -14 36 -23.5t65 -9.5z" />
    <glyph glyph-name="seven" unicode="7" horiz-adv-x="430" 
d="M53 500h311q31 0 29 -26l-4 -37q-3 -29 -14 -59l-125 -336q-10 -27 -32 -32l-51 -11q-20 -4 -26 9q-4 11 6 31l171 337q18 34 -23 34h-228q-24 0 -30 23l-10 40q-2 11 5 19t21 8z" />
    <glyph glyph-name="eight" unicode="8" horiz-adv-x="492" 
d="M402 449q19 -27 19 -67q0 -20 -6 -40q-14 -41 -51 -72q49 -25 69 -64q12 -24 12 -58q0 -43 -18 -76q-24 -44 -77 -63q-38 -14 -107 -14q-59 0 -96 11q-47 14 -76 55q-23 33 -23 78q0 37 14 67.5t60 64.5q-26 19 -38 49q-10 26 -10 50q0 27 12 58q14 34 55 56q38 21 94 21
q60 0 97 -11q47 -13 70 -45zM319 289q14 11 22 22q14 21 15 46q0 28 -19 44q-18 15 -46 17q-64 6 -119 -1q-40 -5 -41 -32q0 -25 35 -38zM162 250q-9 -9 -17 -21q-22 -30 -22 -61q-1 -49 43 -74q22 -13 72 -16q57 -3 91 1q28 4 44 15t16 38q1 33 -40 48l-177 67z" />
    <glyph glyph-name="nine" unicode="9" horiz-adv-x="466" 
d="M279 166q-36 -15 -73 -19q-31 -4 -51 0q-44 10 -70 39q-29 32 -35 79q-2 16 -2 33q0 30 6 63q8 47 37 89q18 27 49 40q34 15 84 15q54 0 88 -8q44 -10 70 -39q29 -33 35 -81q2 -22 2 -43q0 -31 -3 -53q-12 -71 -62 -145l-116 -171q-17 -24 -39 -25h-52q-21 0 -23 14.5
t12 28.5l152 167q6 7 2.5 13t-11.5 3zM236 415h-42q-41 0 -62 -22q-22 -24 -22 -65q0 -44 21 -70q12 -14 36 -23q37 -14 86 -14q62 0 88 37q17 24 17 59q0 39 -21 65q-12 14 -36 23.5t-65 9.5z" />
    <glyph glyph-name="colon" unicode=":" horiz-adv-x="283" 
d="M108 399h39q14 0 23 -8t7 -22l-7 -54q-2 -11 -10.5 -18.5t-20.5 -7.5h-39q-14 0 -23 8.5t-7 21.5l8 52q1 12 9.5 20t20.5 8zM108 110h39q14 0 23 -8t7 -22l-7 -54q-2 -11 -10.5 -18.5t-20.5 -7.5h-39q-14 0 -23 8.5t-7 21.5l8 52q1 12 9.5 20t20.5 8z" />
    <glyph glyph-name="semicolon" unicode=";" horiz-adv-x="283" 
d="M120 -110q-7 -19 -21 -23l-15 -5q-14 -3 -21 4q-5 6 -3 19l17 109q2 12 -1 15q-8 9 -6 21l8 52q1 12 9.5 20t20.5 8h38q15 0 24 -8t7 -22l-5 -40q-3 -20 -10 -38zM108 399h39q14 0 23 -8t7 -22l-7 -54q-2 -11 -10.5 -18.5t-20.5 -7.5h-39q-14 0 -23 8.5t-7 21.5l8 52
q1 12 9.5 20t20.5 8z" />
    <glyph glyph-name="less" unicode="&#x3c;" horiz-adv-x="461" 
d="M90 203q-41 27 -40 49.5t40 47.5l267 172q13 8 25 1t9 -23l-10 -51q-5 -28 -31 -39l-213 -95q-11 -5 -11 -13.5t11 -13.5l213 -95q26 -12 31 -39l10 -52q3 -15 -9 -22t-25 1z" />
    <glyph glyph-name="equal" unicode="=" horiz-adv-x="542" 
d="M416 152h-288q-12 0 -22.5 6.5t-12.5 16.5l-7 23q-3 11 4.5 19t21.5 8h316q16 0 24 -6.5t5 -19.5l-4 -20q-5 -27 -37 -27zM416 292h-288q-12 0 -22.5 6.5t-12.5 16.5l-7 23q-3 11 4.5 19t21.5 8h316q16 0 24 -6.5t5 -19.5l-4 -20q-5 -27 -37 -27z" />
    <glyph glyph-name="greater" unicode="&#x3e;" horiz-adv-x="461" 
d="M371 203l-267 -172q-14 -9 -25.5 -2t-8.5 23l10 52q5 27 31 39l213 95q10 4 10 13t-10 14l-213 95q-26 11 -31 39l-10 51q-3 16 9.5 23t24.5 -1l267 -172q40 -26 40.5 -48.5t-40.5 -48.5z" />
    <glyph glyph-name="question" unicode="?" horiz-adv-x="455" 
d="M204 110h33q14 0 23 -8t7 -22l-7 -54q-2 -11 -10.5 -18.5t-19.5 -7.5h-34q-15 0 -24 8.5t-7 21.5l8 52q2 12 10.5 20t20.5 8zM276 258q-24 -15 -26 -32q-3 -19 -16 -26l-17 -7q-8 -3 -15.5 -0.5t-10.5 7.5q-2 4 -3 24v16q0 15 14 25q45 32 65 56q16 20 21 56q6 44 -19 65
q-15 13 -61 13h-91q-24 0 -30 23l-9 40q-3 11 4 19t21 8h139q43 0 68 -10q27 -11 41 -38q13 -27 14 -67t-10 -77q-15 -57 -79 -95z" />
    <glyph glyph-name="A" unicode="A" horiz-adv-x="759" 
d="M182 -109q-32 0 -50 15q-19 15 -19 51v586q0 37 19 52q18 15 50 15h396q32 0 51 -15q18 -15 18 -52v-586q0 -36 -18 -51q-19 -15 -51 -15h-396zM212 550q-37 0 -37 -34v-532q0 -34 37 -34h336q37 0 37 34v532q0 34 -37 34h-336z" />
    <glyph glyph-name="bracketleft" unicode="[" horiz-adv-x="318" 
d="M74 -31v574q0 37 19 52q18 15 50 15h124q13 0 20.5 -8t4.5 -20l-10 -40q-5 -22 -29 -22h-80q-37 0 -37 -34v-460q0 -33 37 -33h80q24 0 29 -23l10 -40q3 -11 -4.5 -19t-20.5 -8h-124q-32 0 -50 15q-19 15 -19 51z" />
    <glyph glyph-name="backslash" unicode="\" 
d="M460 19q17 -29 19 -35q2 -9 -2.5 -16t-13.5 -7l-39 3q-20 3 -35 28l-298 478q-20 32 -23 43q-3 12 3 21t17 8l45 -5q25 -3 44 -35z" />
    <glyph glyph-name="bracketright" unicode="]" horiz-adv-x="318" 
d="M246 -31q0 -36 -19 -51q-18 -15 -51 -15h-123q-14 0 -21 8t-5 19l10 40q6 23 30 23h79q37 0 37 33v460q0 34 -37 34h-79q-24 0 -30 22l-10 40q-2 12 5 20t21 8h123q33 0 51 -15q19 -15 19 -52v-574z" />
    <glyph glyph-name="grave" unicode="`" horiz-adv-x="207" 
d="M161 409l3 94q1 27 -21 38l-46 23q-18 9 -33 -4q-13 -10 -9 -31l24 -117q3 -18 19 -26l32 -15q8 -4 16.5 -1t11.5 10q2 5 3 29z" />
    <glyph glyph-name="afii57645" unicode="&#x5be;" horiz-adv-x="378" 
d="M286 410h-198q-24 0 -30 23l-9 40q-3 11 4.5 19t20.5 8h228q16 0 23.5 -6.5t5.5 -19.5l-8 -37q-5 -27 -37 -27z" />
    <glyph glyph-name="afii57664" unicode="&#x5d0;" horiz-adv-x="562" 
d="M152 346l-61 70q-20 22 -10 47l13 25q7 15 18.5 16t21.5 -10l200 -229q21 -24 37 -24q22 -1 35 19q7 12 6 47l-6 159q-1 22 25 28l41 9q12 3 20.5 -4t7.5 -19l-6 -121q-2 -49 -13 -83q-12 -39 -43 -68q-30 -28 -7 -54l61 -71q22 -24 10 -47l-12 -26q-6 -14 -18.5 -15.5
t-22.5 10.5l-200 230q-21 24 -38 25q-22 1 -34 -20q-8 -12 -6 -46l5 -159q1 -22 -24 -28l-41 -9q-12 -3 -20.5 4t-8.5 19l6 121q3 48 13.5 82.5t42.5 65.5q31 30 8 56z" />
    <glyph glyph-name="afii57665" unicode="&#x5d1;" horiz-adv-x="476" 
d="M368 122q-17 -32 28 -32h8q32 0 37 -27l8 -37q2 -13 -5.5 -19.5t-23.5 -6.5h-359q-13 0 -20.5 8t-4.5 19l9 40q6 23 30 23h176q36 0 62 37q33 48 33 124q0 58 -16 103q-9 24 -33 42q-19 14 -57 14h-147q-25 0 -30 23l-10 40q-3 11 4.5 19t20.5 8h171q44 0 68 -7
q29 -9 47 -29q21 -23 33.5 -60.5t13.5 -76.5q2 -116 -43 -205z" />
    <glyph glyph-name="afii57666" unicode="&#x5d2;" horiz-adv-x="385" 
d="M259 116q-1 20 -22 4l-159 -117q-20 -13 -35.5 -3t-11.5 29l13 45q7 25 35 37l147 64q16 7 22 19t3 37l-9 93q-5 48 -21 66q-19 20 -60 20h-51q-24 0 -30 23l-9 40q-3 11 4 19t21 8h44q62 0 93 -18q28 -16 41 -42.5t20 -69.5l53 -326q4 -21 -14 -31l-24 -14
q-18 -10 -31 1q-9 7 -11 30z" />
    <glyph glyph-name="afii57667" unicode="&#x5d3;" horiz-adv-x="485" 
d="M51 500h358q16 0 23.5 -6.5t5.5 -19.5l-8 -37q-5 -27 -37 -27q-13 0 -20.5 -8.5t-7.5 -23.5l5 -336q1 -23 -19 -32l-27 -11q-10 -4 -19.5 -0.5t-12.5 9.5q-5 10 -4 31l21 337q1 19 -9 26.5t-28 7.5h-207q-24 0 -30 23l-9 40q-3 11 4.5 19t20.5 8z" />
    <glyph glyph-name="afii57668" unicode="&#x5d4;" horiz-adv-x="500" 
d="M124 242l3 -200q1 -23 -19 -32l-27 -11q-10 -4 -19.5 -0.5t-13.5 9.5q-4 10 -3 31l13 200q1 20 15 26l22 9q8 3 15.5 0.5t10.5 -8.5q2 -5 3 -24zM442 42q1 -23 -19 -32l-27 -11q-10 -4 -19.5 -0.5t-12.5 9.5q-5 10 -4 31l19 285q3 47 -12 66q-16 20 -56 20h-229
q-25 0 -30 23l-10 40q-2 11 5 19t20 8h235q68 0 100 -27q19 -18 26.5 -42t8.5 -61z" />
    <glyph glyph-name="afii57669" unicode="&#x5d5;" horiz-adv-x="266" 
d="M187 42q0 -23 -20 -32l-26 -11q-11 -4 -20.5 -0.5t-12.5 9.5q-5 10 -4 31l20 342q1 13 -6 21q-5 5 -15 6l-25 1q-25 1 -30 24l-10 40q-3 11 4.5 19t20.5 8h46q32 0 51 -15q18 -14 18 -51z" />
    <glyph glyph-name="afii57670" unicode="&#x5d6;" horiz-adv-x="316" 
d="M74 500h166q16 0 23.5 -6.5t5.5 -19.5l-8 -37q-5 -27 -37 -27h-8q-13 0 -22 -10q-7 -7 -9 -22q-15 -153 14 -336q4 -23 -16 -32l-27 -11q-10 -4 -19.5 -0.5t-13.5 9.5q-5 10 -6 31q-12 161 15 337q2 17 -7 26q-9 8 -30 8h-7q-24 0 -30 23l-9 40q-3 11 4.5 19t20.5 8z" />
    <glyph glyph-name="afii57671" unicode="&#x5d7;" horiz-adv-x="535" 
d="M336 500q68 0 100 -27q19 -18 26.5 -42t8.5 -61l5 -328q1 -23 -19 -32l-27 -11q-10 -4 -19.5 -0.5t-12.5 9.5q-5 10 -4 31l19 285q3 48 -12 66q-16 20 -56 20h-181q-13 0 -20.5 -8.5t-7.5 -23.5l5 -336q1 -23 -19 -32l-27 -11q-10 -4 -19.5 -0.5t-12.5 9.5q-5 10 -4 31
l21 337q1 13 0 20.5t-5 20.5t-4 16l-10 40q-3 11 4.5 19t20.5 8h250z" />
    <glyph glyph-name="afii57672" unicode="&#x5d8;" horiz-adv-x="573" 
d="M413 500q69 0 93 -28q29 -33 13 -93l-61 -226q-18 -69 -56 -104q-54 -49 -135 -49q-52 0 -81 26q-34 30 -50 98l-85 337q-5 21 -2 31q2 6 11 9t20 0l47 -11q21 -6 25 -32l46 -326q3 -18 15 -30t31 -12q41 0 63 4q41 7 66 30q26 24 35 72l26 184q4 30 -29 30h-125
q-24 0 -30 23l-9 40q-3 11 4 19t21 8h147z" />
    <glyph glyph-name="afii57673" unicode="&#x5d9;" horiz-adv-x="323" 
d="M267 466q19 -33 0 -97l-32 -107q-8 -28 -33 -33l-37 -8q-19 -4 -29 8t-2 25l75 118q10 16 3 27t-30 11h-104q-25 0 -30 23l-10 40q-3 11 4.5 19t20.5 8h117q67 0 87 -34z" />
    <glyph glyph-name="afii57674" unicode="&#x5da;" horiz-adv-x="477" 
d="M413 317l6 -458q1 -23 -19 -32l-27 -11q-10 -4 -19.5 -0.5t-12.5 9.5q-5 9 -4 31l18 418q2 41 -1.5 64t-16.5 40q-26 32 -90 32h-169q-25 0 -30 23l-10 40q-3 11 4.5 19t20.5 8h150q56 0 90 -7t60 -28q49 -39 50 -148z" />
    <glyph glyph-name="afii57675" unicode="&#x5db;" horiz-adv-x="464" 
d="M410 196q-10 -64 -42 -122q-21 -36 -56 -54q-40 -20 -98 -20h-151q-13 0 -20.5 8t-4.5 19l10 40q5 23 30 23h176q50 0 74 36q26 38 24 124q-1 63 -26 105q-14 24 -43 39q-28 16 -78 16h-119q-24 0 -30 23l-9 40q-3 11 4.5 19t20.5 8h121q62 0 101 -10q50 -14 80 -54
q34 -44 40 -109q6 -62 -4 -131z" />
    <glyph glyph-name="afii57676" unicode="&#x5dc;" horiz-adv-x="502" 
d="M337 111l-90 -94q-15 -16 -26 -19q-7 -3 -16.5 1t-13.5 13l-17 42q-8 20 10 35l114 95q35 30 58 63q23 34 33 69q10 31 11 68q1 14 -6 20t-21 6h-284q-23 0 -33 15q-9 14 -3 48l21 107q2 13 -10 20l-10.5 4t-8.5 3q-15 8 -19 22l-9 40q-3 11 4.5 19t20.5 8h25
q33 0 50 -15q21 -17 16 -51l-13 -96q-2 -16 8 -25q9 -9 29 -9h229q33 0 51 -15q19 -15 19 -51q0 -86 -7 -126q-10 -54 -38 -102q-23 -42 -74 -95z" />
    <glyph glyph-name="afii57677" unicode="&#x5dd;" horiz-adv-x="502" 
d="M300 410h-159q-13 0 -20.5 -8.5t-7.5 -23.5l4 -248q1 -40 50 -40h147q61 0 63 40l9 177q3 55 -15 77q-20 26 -71 26zM441 343l4 -245q0 -19 -8 -34l-22 -41q-12 -23 -36 -23h-289q-23 0 -34 12q-7 9 -7 37l8 327q0 10 -1 18t-1.5 12.5t-3 13.5t-3.5 13l-10 40
q-3 11 4.5 19t20.5 8h199q49 0 80 -6t55 -25q43 -36 44 -126z" />
    <glyph glyph-name="afii57678" unicode="&#x5de;" horiz-adv-x="520" 
d="M124 376q3 11 -3 18q-5 5 -19 6l-23 2q-25 2 -30 23l-11 48q-3 11 4.5 19t20.5 8h26q30 0 48 -15q10 -8 14 -22q2 -8 4 -12t4 -7t4.5 -2.5t5.5 4.5q20 24 44 37q37 19 91 19q73 0 115 -52q30 -38 41 -97q16 -84 11 -207q-3 -67 -11 -82l-21 -41q-13 -23 -37 -23h-167
q-13 0 -20.5 8t-4.5 19l10 40q5 23 29 23h137q10 0 16 1.5t8.5 6.5t3 7t0.5 10q10 121 -26 213q-32 84 -112 84q-59 1 -92 -45q-22 -31 -30 -75q-6 -36 -9 -76.5t-5.5 -94.5t-4.5 -79q-2 -24 -21 -32l-29 -11q-10 -4 -19.5 -0.5t-11.5 9.5q-3 10 -1 31q16 180 71 337z" />
    <glyph glyph-name="afii57679" unicode="&#x5df;" horiz-adv-x="245" 
d="M48 433l-10 40q-3 11 4.5 19t20.5 8h46q32 0 51 -15q18 -14 18 -51l9 -577q0 -23 -20 -31l-26 -11q-11 -4 -20.5 -1t-12.5 10q-4 9 -4 30l20 527q1 13 -6 21q-5 5 -15 6l-25 1q-25 3 -30 24z" />
    <glyph glyph-name="afii57680" unicode="&#x5e0;" horiz-adv-x="364" 
d="M86 90h89q33 0 45 11q11 11 11 36l2 187q0 51 -12 66q-16 20 -56 20h-46q-24 0 -30 23l-9 40q-3 11 4.5 19t20.5 8h45q40 0 61 -5q31 -7 50 -27q26 -28 30 -98l15 -272q1 -18 -7 -34l-22 -41q-12 -23 -36 -23h-170q-13 0 -20.5 8t-4.5 19l10 40q5 23 30 23z" />
    <glyph glyph-name="afii57681" unicode="&#x5e1;" horiz-adv-x="505" 
d="M78 382q0 19 -8 51l-10 40q-3 11 4.5 19t20.5 8h158q64 0 100 -9q25 -6 47 -22.5t35 -36.5q26 -39 31 -105q5 -60 -5 -132q-8 -60 -27 -100q-22 -49 -68 -77q-36 -23 -97 -23q-51 0 -85 14q-50 21 -75 54q-31 42 -36 110q-5 66 6 131q9 52 9 78zM130 384q0 -4 -1 -17.5
t-2 -21.5q-7 -55 -5 -95q2 -46 14 -78q17 -44 55 -66q30 -18 90 -18q64 7 86 38q34 48 31 124q-2 50 -14 80q-18 44 -55 64q-29 16 -87 16h-85q-11 0 -19 -7q-7 -7 -8 -19z" />
    <glyph glyph-name="afii57682" unicode="&#x5e2;" horiz-adv-x="509" 
d="M147 90q9 0 13.5 6t1.5 16l-108 336q-4 11 -1.5 21.5t11.5 13.5l35 16q22 9 34 -1q7 -6 12 -29l77 -358q2 -12 10 -17q5 -4 17 -4h13q54 0 76 30q27 35 28 110l1 222q0 23 19 32l39 16q9 4 19 0.5t13 -9.5q7 -13 4 -31l-41 -272q-9 -62 -24 -98q-22 -52 -72 -75
q-32 -15 -97 -15h-153q-13 0 -20.5 8t-4.5 19l9 40q6 23 30 23h59z" />
    <glyph glyph-name="afii57683" unicode="&#x5e3;" horiz-adv-x="491" 
d="M171 410q-33 0 -37 -27l-14 -81q-3 -15 5.5 -23t25.5 -8h62q13 0 20.5 -8t4.5 -19l-7 -32q-6 -22 -30 -22h-122q-13 0 -20 8t-5 18l24 140q6 26 -1 54l-16 63q-3 11 4.5 19t20.5 8h122q63 0 104 -11q56 -15 82 -53q28 -43 33 -109q1 -20 1 -53l5 -415q0 -23 -19 -32
l-27 -11q-10 -4 -19.5 -0.5t-13.5 9.5q-4 9 -3 31l19 375q3 76 -11 112q-15 38 -52 54q-31 13 -83 13h-53z" />
    <glyph glyph-name="afii57684" unicode="&#x5e4;" horiz-adv-x="492" 
d="M171 410q-33 0 -38 -27l-9 -57q-3 -14 5.5 -22.5t25.5 -8.5h62q13 0 20.5 -7.5t4.5 -19.5l-7 -31q-6 -23 -30 -23h-122q-12 0 -19.5 8t-5.5 19l20 115q5 32 -1 54l-16 63q-3 11 4.5 19t20.5 8h125q62 0 101 -10q48 -13 79 -54q32 -41 40 -109q8 -66 0 -131
q-9 -67 -39 -122q-21 -36 -56 -54q-38 -20 -97 -20h-158q-14 0 -21 8t-4 19l9 40q6 23 30 23h179q50 0 75 36q30 45 28 124q-2 45 -16 82q-17 42 -54 62q-29 16 -78 16h-58z" />
    <glyph glyph-name="afii57685" unicode="&#x5e5;" horiz-adv-x="527" 
d="M260 102q3 58 -37 101l-162 197q-18 22 -11 47l12 41q5 15 18.5 16.5t22.5 -10.5l169 -247q16 -23 38 -24q23 -1 35 18q9 15 11 40l19 185q2 23 25 28l40 9q13 3 22.5 -4t6.5 -19l-32 -164q-8 -40 -21 -68t-48 -60l-12 -9.5t-16 -15.5q-16 -19 -15 -52l6 -254
q0 -23 -20 -32l-27 -11q-10 -4 -19.5 -0.5t-12.5 9.5q-5 9 -4 31z" />
    <glyph glyph-name="afii57686" unicode="&#x5e6;" horiz-adv-x="547" 
d="M374 129l-305 265q-20 17 -11 48l13 46q4 15 17 16.5t23 -10.5l186 -205q22 -24 38 -25q23 0 35 19q7 12 5 46l-5 137q-1 22 24 28l41 9q12 3 21 -4t8 -19l-6 -98q-3 -51 -14 -83q-8 -25 -33 -55q-23 -29 -6 -54q5 -8 22 -26t29 -35t12 -31q0 -20 -8 -34l-22 -41
q-12 -23 -36 -23h-330q-14 0 -21 8t-4 19l9 40q6 23 30 23h272q18 0 23 15t-7 24z" />
    <glyph glyph-name="afii57687" unicode="&#x5e7;" horiz-adv-x="522" 
d="M482 356v-29q0 -46 -18 -90q-18 -45 -58 -87l-116 -121q-15 -16 -26 -19q-7 -3 -16.5 1.5t-13.5 13.5l-17 41q-7 20 11 35l133 115q37 32 50 57.5t13 54.5q0 45 -27 66q-22 16 -64 16h-240q-25 0 -30 23l-10 40q-3 11 4.5 19t20.5 8h208q56 0 84 -5q41 -7 67 -27
q18 -14 30.5 -37.5t14.5 -50.5v-24zM97 285q0 17 13 22l24 11q7 3 13.5 0.5t8.5 -7.5q3 -4 3 -21l6 -486q1 -23 -19 -31l-27 -11q-10 -4 -19.5 -1t-12.5 10q-4 8 -4 30z" />
    <glyph glyph-name="afii57688" unicode="&#x5e8;" horiz-adv-x="481" 
d="M360 308q3 45 -17 70q-25 32 -90 32h-171q-25 0 -30 23l-10 40q-2 11 5 19t20 8h152q55 0 89.5 -7t60.5 -28q29 -25 38.5 -59t10.5 -89l6 -275q0 -23 -20 -32l-27 -11q-10 -4 -19.5 -0.5t-12.5 9.5q-5 10 -4 31z" />
    <glyph glyph-name="afii57689" unicode="&#x5e9;" horiz-adv-x="669" 
d="M252 0q-46 0 -70 15q-27 16 -37 57l-92 375q-7 29 10 35l37 17q22 9 35 -1q8 -8 11 -29l46 -338q3 -23 16 -33q11 -8 39 -8h29q11 0 17.5 7t6.5 19l-3 334q0 24 19 32l40 18q10 4 19.5 0.5t13.5 -9.5q5 -11 3 -31l-37 -345q-1 -11 5.5 -18t17.5 -7h22q29 0 47 6t31 23
t22 48q7 26 10 67l17 218q3 23 22 31l42 17q10 4 19.5 0.5t12.5 -9.5q5 -12 1 -31l-56 -274q-15 -72 -44 -116q-23 -35 -62 -54q-34 -16 -106 -16h-104z" />
    <glyph glyph-name="afii57690" unicode="&#x5ea;" horiz-adv-x="584" 
d="M457 274q3 40 -0.5 63t-17.5 41q-25 32 -90 32h-111q-14 0 -21.5 -8.5t-6.5 -23.5l6 -280q1 -19 -7 -34l-22 -41q-12 -23 -36 -23h-98q-13 0 -20.5 8t-4.5 19l9 40q6 23 30 23h44q27 0 29 26l18 260q2 34 -37 34h-2q-25 0 -30 23l-10 40q-3 11 4.5 19t20.5 8h213
q55 0 89 -7t61 -28q26 -22 37 -58t12 -90l10 -275q0 -23 -20 -32l-26 -11q-11 -4 -20.5 -0.5t-12.5 9.5q-5 11 -3 31z" />
    <glyph glyph-name="emdash" unicode="&#x2014;" horiz-adv-x="842" 
d="M752 222h-661q-12 0 -22.5 6.5t-12.5 16.5l-7 28q-3 11 4.5 19t20.5 8h691q16 0 24 -6.5t5 -19.5l-5 -25q-5 -27 -37 -27z" />
    <glyph glyph-name="afii00208" unicode="&#x2015;" horiz-adv-x="1163" 
d="M1073 222h-982q-12 0 -22.5 6.5t-12.5 16.5l-7 28q-3 11 4.5 19t20.5 8h1012q16 0 24 -6.5t5 -19.5l-5 -25q-5 -27 -37 -27z" />
    <glyph glyph-name="ellipsis" unicode="&#x2026;" horiz-adv-x="854" 
d="M136 110h38q15 0 23.5 -8t7.5 -22l-7 -54q-2 -11 -10.5 -18.5t-20.5 -7.5h-39q-15 0 -23.5 8.5t-7.5 21.5l8 52q2 12 10.5 20t20.5 8zM401 110h38q15 0 23.5 -8t7.5 -22l-7 -54q-2 -11 -10.5 -18.5t-20.5 -7.5h-39q-15 0 -23.5 8.5t-7.5 21.5l8 52q2 12 10.5 20t20.5 8z
M666 110h38q15 0 23.5 -8t7.5 -22l-7 -54q-2 -11 -10.5 -18.5t-20.5 -7.5h-39q-15 0 -23.5 8.5t-7.5 21.5l8 52q2 12 10.5 20t20.5 8z" />
    <glyph glyph-name="SF110000" unicode="&#x2502;" horiz-adv-x="663" 
d="M364 750v-1000h-64v1000h64z" />
  </font>
</defs>
</svg>
